<?xml version="1.0" encoding="UTF-8" standalone="no"?>
<svg
   xmlns:dc="http://purl.org/dc/elements/1.1/"
   xmlns:cc="http://creativecommons.org/ns#"
   xmlns:rdf="http://www.w3.org/1999/02/22-rdf-syntax-ns#"
   xmlns:svg="http://www.w3.org/2000/svg"
   xmlns="http://www.w3.org/2000/svg"
   xmlns:sodipodi="http://sodipodi.sourceforge.net/DTD/sodipodi-0.dtd"
   xmlns:inkscape="http://www.inkscape.org/namespaces/inkscape"
   class="icon"
   height="360"
   viewBox="0 0 1024 720"
   version="1.1"
   id="svg4"
   sodipodi:docname="data-lab-image.svg"
   inkscape:version="0.92.4 (f8dce91, 2019-08-02)"
   width="1024">
  <metadata
     id="metadata10">
    <rdf:RDF>
      <cc:Work
         rdf:about="">
        <dc:format>image/svg+xml</dc:format>
        <dc:type
           rdf:resource="http://purl.org/dc/dcmitype/StillImage" />
        <dc:title></dc:title>
      </cc:Work>
    </rdf:RDF>
  </metadata>
  <defs
     id="defs8" />
  <sodipodi:namedview
     pagecolor="#ffffff"
     bordercolor="#666666"
     borderopacity="1"
     objecttolerance="10"
     gridtolerance="10"
     guidetolerance="10"
     inkscape:pageopacity="0"
     inkscape:pageshadow="2"
     inkscape:window-width="1920"
     inkscape:window-height="1145"
     id="namedview6"
     showgrid="false"
     inkscape:zoom="1.3671875"
     inkscape:cx="619.4135"
     inkscape:cy="265.17051"
     inkscape:window-x="1920"
     inkscape:window-y="27"
     inkscape:window-maximized="1"
     inkscape:current-layer="svg4" />
  <path
     d="m 598.72414,51.619 c 5.005,5.484 8.761,11.529 11.252,18.14 2.528,6.596 3.775,13.68 3.763,21.268 0.048,14.39 -4.962,27.537 -15.011,39.412 -11.885,10.921 -24.606,16.348 -38.157,16.262 -5.211,0.008 -10.433,-1.245 -15.635,-3.751 -9.101,-2.471 -17.018,-6.634 -23.773,-12.511 -11.765,-11.908 -17.604,-25.046 -17.516,-39.412 0,-7.502 0.842,-14.586 2.505,-21.268 7.429,-12.32 17.843,-22.16 30.265,-28.695 -5.113,-1.146 8.021,-6.991 24.157,-6.953 l 11.257,1.246 c 11.107,3.325 20.074,8.747 26.89,16.262 z m -153.864,123.845 c -2.334,2.91 -3.75,6.644 -3.764,10.708 0.049,3.02 0.465,5.737 1.259,8.055 0.866,0.953 1.695,2.615 2.505,5.012 3.971,2.405 7.928,3.65 11.874,3.751 4.776,-0.11 8.732,-1.356 11.885,-3.751 3.248,-4.01 4.911,-8.383 5.005,-13.144 -0.097,-3.923 -1.758,-7.469 -5.005,-10.629 -2.556,-2.617 -5.803,-4.548 -9.445,-5.498 2.329,0.956 -0.121,0.495 -2.678,0.486 l -4.756,0.003 c -3.071,0.921 -5.355,2.59 -6.878,5.012 z m -13.77,-13.752 c 6.792,-7.548 15.348,-11.3 25.645,-11.26 6.889,-0.024 13.766,1.648 20.645,5.004 2.552,1.676 4.641,3.764 6.256,6.256 l 3.75,2.496 c 4.335,6.998 6.424,14.705 6.256,23.151 0.063,10.26 -3.276,18.81 -10.006,25.641 -6.802,8.403 -15.769,12.569 -26.901,12.507 -10.227,0.024 -18.763,-4.139 -25.645,-12.507 -2.5,-0.805 -4.177,-2.055 -4.996,-3.75 -4.2,-5.997 -6.289,-13.287 -6.255,-21.891 v -11.266 c 2.496,-5.365 6.255,-10.164 11.252,-14.379 z m 110.083,-88.824 c -4.876,4.823 -7.382,10.447 -7.502,16.895 0.072,6.424 2.567,12.473 7.502,18.13 5.609,4.876 11.238,7.367 16.899,7.511 h 2.5 c 6.419,-0.1 12.052,-2.602 16.884,-7.511 4.057,-5.595 6.146,-11.645 6.256,-18.13 -0.12,-6.437 -2.208,-12.056 -6.256,-16.895 l -7.502,-3.751 c -3.995,-2.467 -7.122,-3.727 -9.383,-3.751 -7.266,0.086 -13.733,2.587 -19.399,7.502 z m 13.771,198.279 -12.511,9.383 v 335.877 c -14.941,46.261 -41.63,69.412 -80.064,69.426 h -1.873 c -38.664,-2.442 -66.81,-25.372 -84.438,-68.802 V 281.792 l -13.766,-13.758 v -24.396 l 8.761,-6.878 h 170.753 l 13.138,11.252 v 23.154 z m -151.377,26.888 v 318.37 c 10.821,24.567 30.637,39.373 59.42,44.408 23.783,-3.42 41.5,-18.225 53.164,-44.408 v -318.37 h -112.583 z m 14.394,108.836 h 82.555 l 0.637,0.623 v 196.403 c -5.927,23.836 -20.314,35.72 -43.157,35.647 -17.824,-1.567 -31.37,-13.244 -40.657,-35.023 V 407.515 l 0.623,-0.623 z m -237.684,-258.946 h 158.874 l 0.623,0.623 v 47.545 l -0.623,0.623 h -6.878 v 148.236 l 30.015,54.425 v 73.172 l -0.623,0.623 -60.661,-120.084 V 210.492 h -86.324 V 352.487 L 88.344143,609.55 c -2.932,10.48 -2.309,19.035 1.868,25.645 4.618,7.684 13.789997,12.886 27.521997,15.635 h 261.45 l 34.403,33.779 -0.638,1.246 h -297.721 C 74.744143,672.39 56.186143,647.166 59.559143,610.178 c 0,-4.972 0.428,-10.394 1.259,-16.262 L 188.41814,344.973 v -148.23 h -8.138 l -0.623,-0.623 v -47.545 l 0.618,-0.623 z m 140.113,320.248 43.157,81.31 v 70.676 l -199.53,0.623 c -18.896,-4.214 -27.021,-15.687 -24.396,-34.403 0.829,-3.372 1.245,-6.294 1.245,-8.747 l 55.047,-109.46 h 124.477 z"
     id="path2"
     style="fill:#008000"
     inkscape:connector-curvature="0" />
  <text
     xml:space="preserve"
     style="font-style:normal;font-weight:normal;font-size:80px;line-height:1.25;font-family:sans-serif;letter-spacing:0px;word-spacing:0px;fill:#008000;fill-opacity:1;stroke:none;stroke-width:2"
     x="583.67993"
     y="283.93143"
     id="text3717"><tspan
       sodipodi:role="line"
       id="tspan3715"
       x="583.67993"
       y="283.93143"
       style="fill:#008000;stroke-width:2">01001011</tspan><tspan
       sodipodi:role="line"
       x="583.67993"
       y="383.93143"
       style="fill:#008000;stroke-width:2"
       id="tspan3719">10011101</tspan><tspan
       sodipodi:role="line"
       x="583.67993"
       y="483.9314"
       style="fill:#008000;stroke-width:2"
       id="tspan3721">00110100</tspan><tspan
       sodipodi:role="line"
       x="583.67993"
       y="583.9314"
       style="fill:#008000;stroke-width:2"
       id="tspan3723">11010110</tspan><tspan
       sodipodi:role="line"
       x="583.67993"
       y="683.9314"
       style="fill:#008000;stroke-width:2"
       id="tspan3725">00111101</tspan><tspan
       sodipodi:role="line"
       x="583.67993"
       y="783.9314"
       style="fill:#008000;stroke-width:2"
       id="tspan3727" /></text>
</svg>
